<?xml version="1.0" encoding="utf-8"?>
<!-- Generator: Adobe Illustrator 24.0.2, SVG Export Plug-In . SVG Version: 6.00 Build 0)  -->
<svg version="1.1"
	 id="svg548" xmlns:inkscape="http://www.inkscape.org/namespaces/inkscape" xmlns:sodipodi="http://sodipodi.sourceforge.net/DTD/sodipodi-0.dtd"
	 xmlns="http://www.w3.org/2000/svg" xmlns:xlink="http://www.w3.org/1999/xlink" x="0px" y="0px" viewBox="0 0 48.7 60.6"
	 style="enable-background:new 0 0 48.7 60.6;" xml:space="preserve">
<style type="text/css">
	.st0{fill-rule:evenodd;clip-rule:evenodd;fill:#0D3C07;}
	.st1{fill-rule:evenodd;clip-rule:evenodd;fill:#2AAF18;}
	.st2{fill-rule:evenodd;clip-rule:evenodd;fill:#208C11;}
	.st3{fill-rule:evenodd;clip-rule:evenodd;fill:#FFFFFF;}
</style>
<sodipodi:namedview  id="base" inkscape:cx="16.0000000" inkscape:cy="20.1423948" inkscape:window-height="696" inkscape:window-width="1014" inkscape:window-x="0" inkscape:window-y="0" inkscape:zoom="9.65625000">
	</sodipodi:namedview>
<g id="g572" transform="matrix(1.046252,1.436184,-1.436184,1.046252,51.70954,-19.10073)">
	<g id="g584" transform="matrix(1.008714,0.000000,0.000000,1.008714,-45.46822,-0.252175)">
		<path id="path582" class="st0" d="M45.6,19.3c-1.2,2.7,1.5,18.5,4.1,18.9c4.3,1.5,5.9-2.6,7.7-2.3c1.7,0.6,8.4,7.3,10.5,6.5
			c3.8-2.2,8.5-8,6.2-12.2c-2.8-3.6-10-5.9-9.3-8.1c0.7-2.1,0.1-4-1.1-4.6C62.4,17,46.4,16.2,45.6,19.3z"/>
		<path id="path581" class="st1" d="M48.6,21.5c-1,2,0.6,12.7,2.7,13c2.1,0.3,3.6-2.8,5-2.4c1.4,0.4,10.1,7.4,11.3,6.1
			c1.1-1.3,5.1-5.6,3.8-6.7c-1.3-1.1-11.1-6.4-10.5-8s1.9-2.8,0.9-3.3S49.3,19.3,48.6,21.5z"/>
		<path id="path583" class="st2" d="M68.1,37.6c0,0-0.9,1.4-2.6,0.4c-1.7-1-9.3-6.6-9.8-6.1c-1.3,1.6-4.4,3.4-5.3,2.4
			c-1.6-1.7-2.7-11.5-2.1-12.7c0.6-1.1,2.3,8.4,4.7,8.5c2.4,0.1,3.4-2.4,4.8-1.6c1.4,0.9,11.3,6.7,11,7.5
			C68.6,37.1,67.6,37.8,68.1,37.6z"/>
	</g>
	<path id="path588" class="st3" d="M25.6,33c0,0-9.6-7.8-10.5-7.5C14.3,25.8,21.7,33.4,25.6,33z"/>
	<path id="path589" class="st3" d="M6.1,21.3c0,0,6.6-1,7.8-0.6c1.1,0.4-0.7,1.9-0.7,1.9S6.9,20.9,6.1,21.3z"/>
</g>
</svg>
